<svg width="1132" height="972" xmlns="http://www.w3.org/2000/svg" xmlns:xlink="http://www.w3.org/1999/xlink" xml:space="preserve" overflow="hidden"><g transform="translate(-435 -1324)"><g><path d="M807.011 1562.08 808.689 1564C811.793 1563.77 814.892 1563.6 818 1563.47L813.434 1558.26 809.13 1552.53C807.958 1550.96 805.548 1550.53 803.753 1551.55 801.957 1552.58 801.465 1554.69 802.632 1556.25L807.011 1562.08Z" fill="#000000" fill-rule="evenodd" fill-opacity="1"/><path d="M722.059 1459.53 726.515 1464.74 730.935 1470.26 735.45 1475.49 739.828 1480.79 744.207 1486.38 748.722 1491.57 753.169 1497.05 757.666 1502.27 766.433 1513.15 770.912 1518.43 784.125 1534.6C785.029 1535.72 786.596 1536.2 788.054 1535.93 788.504 1535.83 788.954 1535.67 789.367 1535.43 791.075 1534.43 791.52 1532.43 790.335 1530.97L777.044 1514.71 772.597 1509.46 763.798 1498.53 759.301 1493.32 754.841 1487.83 750.367 1482.67 746.038 1477.15 741.559 1471.73 737.076 1466.55 732.665 1461.03 728.2 1455.82 723.871 1450.4C722.699 1448.93 720.365 1448.57 718.643 1449.56 716.921 1450.55 716.485 1452.55 717.657 1454.02L722.059 1459.53Z" fill="#000000" fill-rule="evenodd" fill-opacity="1"/><path d="M536 1695.51 535.568 1695.41 528.218 1693.88 520.791 1692.12C518.784 1691.64 516.7 1692.63 516.14 1694.33 515.581 1696.03 516.745 1697.79 518.757 1698.27L526.298 1700.06 533.652 1701.59 535.368 1702C535.445 1699.81 535.659 1697.65 536 1695.51Z" fill="#000000" fill-rule="evenodd" fill-opacity="1"/><path d="M921.453 1965.01 921.453 1964 919.454 1967.95 915.962 1973.79 912.873 1979.89 909.291 1985.72 905.994 1991.75 903.099 1997.62 893.144 2015.47 891 2019.65C893.266 2020.59 895.41 2021.73 897.441 2023L899.964 2018.08 906.428 2006.3 909.92 2000.25 912.851 1994.33 916.017 1988.53 919.59 1982.72 922.697 1976.57 923 1976.07C922.023 1972.51 921.453 1968.82 921.453 1965.01Z" fill="#000000" fill-rule="evenodd" fill-opacity="1"/><path d="M845.859 2109.31C843.969 2108.55 841.734 2109.23 840.844 2110.84L837.515 2116.83 827.89 2134.76 821.25 2146.73 818.188 2152.66 814.868 2158.69 811.847 2164.6 808.436 2170.58 805.17 2176.61 802.123 2182.52 798.762 2188.53 795.686 2194.46 792.371 2200.38C791.471 2202 792.266 2203.91 794.129 2204.68 794.923 2205.01 795.782 2205.08 796.572 2204.92 797.671 2204.72 798.634 2204.1 799.152 2203.17L802.531 2197.15 805.597 2191.23 808.968 2185.21 812.038 2179.25 815.245 2173.33 818.683 2167.31 821.713 2161.37 825.042 2155.34 828.103 2149.4 834.726 2137.46 837.86 2131.49 847.635 2113.6C848.525 2112 847.734 2110.08 845.859 2109.31Z" fill="#000000" fill-rule="evenodd" fill-opacity="1"/><path d="M1145.01 2220.69 1142.93 2214.59 1141.04 2208.2 1138.91 2202.08 1136.97 2195.92 1135.14 2189.46 1133.01 2183.38 1131.06 2177.01 1128.94 2170.9 1125.16 2158.3 1123.09 2152.13 1117.27 2133.37C1116.75 2131.67 1114.74 2130.69 1112.76 2131.09 1110.79 2131.54 1109.61 2133.26 1110.12 2134.95L1115.98 2153.82 1118.01 2159.95 1121.82 2172.6 1123.95 2178.71 1125.88 2185.07 1127.99 2191.11 1129.81 2197.47 1131.8 2203.79 1133.92 2209.87 1135.79 2216.25 1137.88 2222.34 1139.73 2228.61C1140.23 2230.27 1142.17 2231.3 1144.11 2230.92 1144.15 2230.91 1144.18 2230.91 1144.22 2230.91 1146.2 2230.48 1147.38 2228.75 1146.89 2227.06L1145.01 2220.69Z" fill="#000000" fill-rule="evenodd" fill-opacity="1"/><path d="M1432.45 2056.14 1426.19 2052.25 1420 2048.62 1413.73 2044.72 1407.49 2041.08 1401.32 2037.34 1396 2034C1396.3 2035.95 1396.58 2037.92 1396.82 2039.92 1396.93 2040.83 1396.92 2041.69 1396.95 2042.57L1397.03 2042.62 1403.29 2046.43 1409.5 2050.03 1415.75 2053.93 1421.96 2057.56 1428.13 2061.41C1429.02 2061.96 1430.1 2062.11 1431.09 2061.92 1431.96 2061.76 1432.75 2061.33 1433.31 2060.65 1434.51 2059.2 1434.11 2057.17 1432.45 2056.14Z" fill="#000000" fill-rule="evenodd" fill-opacity="1"/><path d="M1521.94 1769.01 1514.11 1769.51 1506.59 1770.22 1498.74 1770.71 1491.18 1771.45 1483.59 1772.05 1475.7 1772.49 1468.17 1773.24 1460.35 1773.78 1452.81 1774.52 1439.43 1775.41C1439.1 1777.65 1438.6 1779.84 1438 1782L1438.02 1782 1453.55 1780.97 1461.09 1780.23 1468.91 1779.68 1476.38 1778.92 1484.18 1778.5 1491.95 1777.89 1499.46 1777.16 1507.29 1776.66 1514.82 1775.94 1522.5 1775.46C1522.7 1775.45 1522.87 1775.42 1523.05 1775.39 1524.85 1775.05 1526.12 1773.62 1525.99 1772 1525.82 1770.22 1524.02 1768.88 1521.94 1769.01Z" fill="#000000" fill-rule="evenodd" fill-opacity="1"/><path d="M1294.59 1574.93C1295.25 1574.8 1295.88 1574.52 1296.4 1574.09L1301.95 1569.52 1318.15 1555.75 1329.23 1546.61 1334.46 1542.02 1340.02 1537.4 1345.21 1532.82 1350.81 1528.3 1356.3 1523.68 1361.52 1519.09 1367.11 1514.51 1372.36 1509.93 1377.86 1505.42C1379.35 1504.2 1379.39 1502.2 1377.93 1500.95 1376.47 1499.7 1374.08 1499.69 1372.61 1500.9L1367.02 1505.48 1361.77 1510.05 1356.17 1514.65 1350.9 1519.27 1345.54 1523.79 1339.87 1528.37 1334.64 1532.97 1329.1 1537.58 1323.85 1542.17 1312.83 1551.29 1307.49 1555.89 1291.12 1569.58C1289.65 1570.8 1289.62 1572.8 1291.07 1574.04 1292.02 1574.86 1293.37 1575.15 1294.59 1574.93Z" fill="#000000" fill-rule="evenodd" fill-opacity="1"/><path d="M1042.98 1578 1043.33 1572.96 1045.14 1559.96 1045.45 1553.33 1046.29 1546.95 1046.55 1540.37 1047.68 1533.91 1048.39 1527.26 1048.68 1520.87 1049.64 1514.53 1050.01 1507.89 1050.97 1501.55C1051.24 1499.81 1049.68 1498.24 1047.49 1498.02 1045.31 1497.81 1043.33 1499.06 1043.06 1500.8L1042.08 1507.27 1041.71 1513.9 1040.74 1520.26 1040.45 1526.89 1039.77 1533.2 1038.62 1539.66 1038.36 1546.42 1037.51 1552.78 1037.21 1559.41 1035.38 1572.42 1035 1578C1037.66 1577.99 1040.32 1578 1042.98 1578Z" fill="#000000" fill-rule="evenodd" fill-opacity="1"/><path d="M1049.35 1476.98C1049.74 1477.02 1050.14 1477 1050.5 1476.92 1052.04 1476.64 1053.23 1475.54 1053.38 1474.14L1055.42 1454.7 1055.95 1448.34 1057.4 1435.35 1057.87 1428.99 1058.59 1422.44 1059.02 1416.15 1059.86 1409.64 1060.51 1403.13 1060.96 1396.79 1061.73 1390.25 1062.22 1383.91 1062.98 1377.48C1063.18 1375.74 1061.7 1374.2 1059.67 1374.02 1057.63 1373.84 1055.82 1375.11 1055.61 1376.85L1054.84 1383.39 1054.36 1389.73 1053.6 1396.28 1053.13 1402.65 1052.49 1409.02 1051.65 1415.6 1051.21 1421.95 1050.5 1428.49 1050.03 1434.85 1048.57 1447.8 1048.03 1454.19 1046.02 1473.52C1045.82 1475.28 1047.3 1476.82 1049.35 1476.98Z" fill="#000000" fill-rule="evenodd" fill-opacity="1"/><path d="M839.396 1479.77 842.692 1485.73 845.791 1492.11 849.142 1498.09 852.272 1504.15 855.204 1510.42 858.667 1516.54 861.829 1522.87 865.171 1528.83 871.355 1541.34 880.971 1559.72 884.11 1566.05 884.957 1567.58C887.974 1568.04 890.987 1568.51 894 1569L890.911 1563.43 881.43 1544.77 878.178 1538.77 871.963 1526.19 868.626 1520.24 865.459 1513.9 862.086 1507.93 859.149 1501.67 855.925 1495.43 852.601 1489.51 849.511 1483.15 846.214 1477.2 843.183 1470.97C842.395 1469.35 840.215 1468.57 838.305 1469.25 836.396 1469.92 835.495 1471.79 836.288 1473.42L839.396 1479.77Z" fill="#000000" fill-rule="evenodd" fill-opacity="1"/><path d="M828.935 1459.1C829.652 1460.51 831.424 1461.25 833.112 1460.93 833.343 1460.88 833.57 1460.82 833.793 1460.73 835.659 1460.03 836.505 1458.16 835.69 1456.56L825.069 1435.9C824.254 1434.3 822.05 1433.56 820.211 1434.27 818.345 1434.97 817.49 1436.83 818.314 1438.44L828.935 1459.1Z" fill="#000000" fill-rule="evenodd" fill-opacity="1"/><path d="M625.021 1647.93 632.121 1650.99 634.706 1652C636.119 1650.25 637.542 1648.5 639 1646.78L635.397 1645.36 628.414 1642.35C626.587 1641.56 624.348 1642.16 623.414 1643.7 622.472 1645.24 623.19 1647.13 625.021 1647.93Z" fill="#000000" fill-rule="evenodd" fill-opacity="1"/><path d="M587.501 1625.34C585.621 1624.54 583.322 1625.2 582.393 1626.84 581.464 1628.48 582.237 1630.45 584.122 1631.27L608.5 1641.66C609.31 1642 610.192 1642.08 611.011 1641.92 612.1 1641.72 613.075 1641.1 613.604 1640.16 614.537 1638.52 613.765 1636.55 611.88 1635.75L587.501 1625.34Z" fill="#000000" fill-rule="evenodd" fill-opacity="1"/><path d="M575.3 1895.1 548.906 1900.61C546.87 1901.04 545.615 1902.78 546.107 1904.52 546.598 1906.25 548.621 1907.3 550.639 1906.92 550.667 1906.91 550.69 1906.91 550.708 1906.91L577.097 1901.4C579.133 1900.97 580.388 1899.22 579.892 1897.48 579.404 1895.74 577.262 1894.65 575.3 1895.1Z" fill="#000000" fill-rule="evenodd" fill-opacity="1"/><path d="M779.236 2077.7C778.233 2076.47 777.303 2075.24 776.346 2074L772.421 2078.65 767.958 2084.18 763.071 2089.76 758.572 2095.29 753.763 2100.77C752.509 2102.21 752.833 2104.26 754.501 2105.34 755.422 2105.94 756.557 2106.12 757.601 2105.92 758.444 2105.76 759.229 2105.35 759.784 2104.7L764.671 2099.13 769.175 2093.6 774.071 2088 778.575 2082.43 781 2079.56C780.421 2078.93 779.779 2078.36 779.236 2077.7Z" fill="#000000" fill-rule="evenodd" fill-opacity="1"/><path d="M748.484 2112.63C746.841 2111.57 744.522 2111.87 743.312 2113.32L727.718 2131.87C726.507 2133.3 726.865 2135.32 728.517 2136.38 729.41 2136.95 730.496 2137.12 731.505 2136.92 732.35 2136.76 733.131 2136.34 733.69 2135.69L749.279 2117.13C750.494 2115.7 750.137 2113.68 748.484 2112.63Z" fill="#000000" fill-rule="evenodd" fill-opacity="1"/><path d="M1042.91 2159.25 1042.54 2152.37 1041.77 2145.79 1041.25 2139.18 1040.99 2132.46 1040.19 2125.71 1039.79 2119.5C1037.14 2118.78 1034.54 2117.94 1032 2117L1032.27 2119.32 1032.71 2126.2 1033.51 2132.77 1033.76 2139.51 1034.29 2146.32 1035.05 2152.83 1035.43 2159.7 1036.15 2166.25 1036.5 2172.97C1036.59 2174.72 1038.35 2176.08 1040.41 2176 1040.64 2175.99 1040.85 2175.97 1041.06 2175.92 1042.81 2175.6 1044.07 2174.25 1044 2172.68L1043.62 2165.8 1042.91 2159.25Z" fill="#000000" fill-rule="evenodd" fill-opacity="1"/><path d="M1041.41 2185.01C1039.4 2185.12 1037.88 2186.63 1038.01 2188.38L1039.73 2211.03C1039.86 2212.78 1041.59 2214.11 1043.59 2213.99 1043.79 2213.98 1043.97 2213.96 1044.15 2213.92 1045.87 2213.58 1047.11 2212.2 1046.99 2210.61L1045.27 2187.98C1045.15 2186.23 1043.42 2184.89 1041.41 2185.01Z" fill="#000000" fill-rule="evenodd" fill-opacity="1"/><path d="M1329.12 2084.89C1325.75 2084.43 1322.43 2083.8 1319.15 2083 1318.81 2084.02 1319.04 2085.16 1319.99 2085.98L1338.52 2102.03C1339.47 2102.85 1340.81 2103.15 1342.05 2102.93 1342.71 2102.81 1343.32 2102.54 1343.84 2102.14 1345.34 2100.94 1345.39 2098.97 1343.96 2097.72L1329.12 2084.89Z" fill="#000000" fill-rule="evenodd" fill-opacity="1"/><path d="M1441.73 1844.58 1433.73 1843.7 1426.02 1843.15 1417.99 1842.26 1410.23 1841.75 1402.5 1841.04 1394.67 1840.08 1386.7 1839.56 1378.7 1838.74 1370.96 1838.22 1355.16 1836.54 1331.66 1834.46 1323.65 1833.6 1315.86 1833.06 1308.12 1832.34 1305.32 1832C1305.22 1832.43 1305.08 1832.85 1304.99 1833.28 1304.62 1835.03 1304.32 1836.67 1304 1838.33L1307.19 1838.73 1315.15 1839.46 1322.9 1840.01 1346.59 1842.33 1354.33 1842.94 1370.23 1844.62 1377.94 1845.14 1385.97 1845.97 1393.73 1846.46 1401.56 1847.43 1409.53 1848.16 1417.21 1848.67 1425.22 1849.55 1432.92 1850.1 1440.77 1850.97C1441.22 1851.02 1441.64 1851.01 1442.06 1850.92 1443.55 1850.64 1444.76 1849.58 1444.97 1848.19 1445.25 1846.43 1443.8 1844.82 1441.73 1844.58Z" fill="#000000" fill-rule="evenodd" fill-opacity="1"/><path d="M1487.01 1853.95C1488.04 1853.78 1488.86 1853.14 1488.98 1852.32 1489.14 1851.26 1488.14 1850.32 1486.75 1850.21L1459.81 1848.01C1458.42 1847.9 1457.17 1848.65 1457.02 1849.69 1456.86 1850.74 1457.86 1851.67 1459.25 1851.79L1486.19 1853.98C1486.47 1854.01 1486.74 1854 1487.01 1853.95Z" fill="#000000" fill-rule="evenodd" fill-opacity="1"/><path d="M1352.99 1613.29C1354.66 1614.46 1356.21 1615.75 1357.8 1617L1360.65 1615.4 1366.82 1611.56 1373.32 1607.91C1375.01 1606.96 1375.51 1604.97 1374.42 1603.48 1373.33 1601.99 1371.08 1601.55 1369.37 1602.51L1362.73 1606.25 1356.57 1610.07 1352 1612.64C1352.33 1612.86 1352.67 1613.06 1352.99 1613.29Z" fill="#000000" fill-rule="evenodd" fill-opacity="1"/><path d="M1387.61 1598.93C1388.05 1598.84 1388.48 1598.69 1388.88 1598.47L1411.32 1585.84C1413.06 1584.86 1413.52 1582.89 1412.37 1581.42 1411.2 1579.96 1408.85 1579.56 1407.12 1580.53L1384.68 1593.17C1382.94 1594.14 1382.48 1596.12 1383.64 1597.58 1384.54 1598.71 1386.13 1599.2 1387.61 1598.93Z" fill="#000000" fill-rule="evenodd" fill-opacity="1"/><path d="M1095.77 1580 1097.64 1574.05 1100.16 1567.51 1102.41 1560.93 1104.41 1554.52 1111.26 1534.96 1113.33 1528.54 1118.05 1515.46 1120.02 1509.04 1122.39 1502.44 1124.31 1496.07 1126.8 1489.55 1129.06 1482.98 1131.03 1476.59 1133.44 1470.01 1135.46 1463.6 1137.83 1457.15C1138.45 1455.46 1137.33 1453.67 1135.34 1453.14 1133.34 1452.62 1131.22 1453.56 1130.59 1455.25L1128.18 1461.83 1126.17 1468.23 1123.76 1474.83 1121.76 1481.27 1119.57 1487.67 1117.04 1494.3 1115.1 1500.71 1112.74 1507.31 1110.77 1513.73 1106.05 1526.75 1099.51 1546.17 1097.12 1552.77 1095.11 1559.22 1092.92 1565.64 1090.39 1572.24 1088.37 1578.65 1088 1579.63C1090.58 1579.74 1093.18 1579.85 1095.77 1580Z" fill="#000000" fill-rule="evenodd" fill-opacity="1"/><path d="M1137.7 1444.87C1138.34 1445.02 1138.98 1445.04 1139.57 1444.92 1140.86 1444.69 1141.96 1443.87 1142.36 1442.72L1149.85 1421.06C1150.43 1419.38 1149.29 1417.61 1147.3 1417.13 1145.31 1416.64 1143.22 1417.6 1142.63 1419.28L1135.15 1440.94C1134.57 1442.62 1135.72 1444.38 1137.7 1444.87Z" fill="#000000" fill-rule="evenodd" fill-opacity="1"/><path d="M888.778 1339.73 890.642 1346.4 892.338 1353.29 894.233 1359.99 895.988 1366.71 897.638 1373.64 899.538 1380.31 901.275 1387.17 903.17 1393.86 906.571 1407.47C906.997 1409.19 908.988 1410.29 911.015 1409.93 911.033 1409.93 911.042 1409.93 911.065 1409.93 913.06 1409.55 914.338 1407.87 913.921 1406.16L910.493 1392.45 908.602 1385.77 906.866 1378.89 904.975 1372.26 903.347 1365.4 901.556 1358.56 899.665 1351.9 897.978 1345.01 896.115 1338.34 894.433 1331.54C894.015 1329.81 892.029 1328.7 889.993 1329.07 889.975 1329.07 889.966 1329.07 889.944 1329.08 887.935 1329.45 886.665 1331.13 887.078 1332.84L888.778 1339.73Z" fill="#000000" fill-rule="evenodd" fill-opacity="1"/><path d="M914.604 1439.06 916.064 1445.71 918.158 1452.19 919.852 1458.61 921.187 1465.45 923.352 1472.01 924.916 1478.6 927.023 1485.13 930.101 1498.42 932.016 1504.85 933.691 1511.5 935.43 1517.97 936.99 1524.69 939.038 1531.19 940.719 1537.6 942.04 1544.41 944.062 1550.96 945.446 1557.6 947.41 1564.1 950.276 1576.53C952.851 1576.72 955.426 1576.85 958 1577L957.771 1576.12 954.67 1562.67 952.725 1556.25 951.332 1549.58 949.332 1543.07 948.025 1536.38 946.255 1529.66 944.233 1523.25 942.705 1516.64 940.957 1510.11 939.263 1503.4 937.371 1497.04 934.275 1483.64 932.168 1477.13 930.591 1470.51 928.452 1464.05 927.145 1457.38 925.375 1450.65 923.316 1444.27 921.865 1437.65 919.821 1431.12 918.383 1424.6C918.001 1422.87 916.055 1421.73 914.038 1422.05 912.11 1422.42 910.677 1424.05 911.063 1425.78L912.555 1432.53 914.604 1439.06Z" fill="#000000" fill-rule="evenodd" fill-opacity="1"/><path d="M557.442 1513.7 563.947 1518.03 570.433 1522.16 576.946 1526.49 583.468 1530.64 596.422 1539.21 602.94 1543.33 609.462 1547.63 615.98 1551.77 628.921 1560.33C629.837 1560.94 630.99 1561.12 632.053 1560.92 632.874 1560.76 633.646 1560.37 634.204 1559.77 635.484 1558.37 635.189 1556.36 633.546 1555.28L620.528 1546.67 614.01 1542.54 607.479 1538.23 600.993 1534.14 594.539 1529.79 581.517 1521.42 575.012 1517.09 568.526 1512.96 562.077 1508.67C560.447 1507.59 558.082 1507.84 556.798 1509.22 555.522 1510.6 555.804 1512.61 557.442 1513.7Z" fill="#000000" fill-rule="evenodd" fill-opacity="1"/><path d="M651.827 1576.11 658.174 1579.97 664.613 1584.37 671.048 1588.22 677.286 1592.28 683.46 1596.65 690.114 1600.61 690.703 1601C692.794 1599.67 694.845 1598.28 697 1597.02L694.625 1595.43 688.177 1591.6 682.008 1587.25 675.523 1583.04 669.166 1579.23 662.759 1574.85 656.398 1570.99 650.155 1566.71C648.529 1565.6 646.15 1565.82 644.84 1567.2 643.52 1568.58 643.789 1570.61 645.411 1571.72L651.827 1576.11Z" fill="#000000" fill-rule="evenodd" fill-opacity="1"/><path d="M531.151 1822 514.73 1822.51 506.688 1822.94 498.444 1823.21 490.457 1823.66 482.258 1823.83 474.049 1824.15 466.022 1824.58 457.795 1824.81 449.768 1825.22 441.627 1825.44C439.568 1825.5 437.947 1827.01 438.001 1828.82 438.074 1830.64 439.798 1832.05 441.866 1832L450.097 1831.77 458.129 1831.37 466.369 1831.13 474.433 1830.69 482.511 1830.39 490.787 1830.21 498.81 1829.76 507.036 1829.49 515.087 1829.07 531.386 1828.56C531.621 1828.56 531.856 1828.53 532.077 1828.5 533.797 1828.16 535.061 1826.78 534.998 1825.18 534.939 1823.36 533.205 1821.96 531.151 1822Z" fill="#000000" fill-rule="evenodd" fill-opacity="1"/><path d="M553.712 1828 561.481 1827.92 569.374 1827.34 576 1827.26C575.247 1825.17 574.481 1823.08 573.693 1821L569.148 1821.05 561.264 1821.62 553.619 1821.7C551.608 1821.74 549.969 1823.16 550 1824.9 550.014 1826.63 551.683 1828.02 553.712 1828Z" fill="#000000" fill-rule="evenodd" fill-opacity="1"/><path d="M631.942 2100 631.161 2100.61 625.352 2105.32 619.208 2109.96 613.164 2114.68 607.314 2119.4 601.175 2124.09 595.307 2128.79 589.24 2133.43C587.704 2134.61 587.577 2136.63 588.96 2137.94 589.891 2138.82 591.286 2139.17 592.555 2138.93 593.17 2138.81 593.753 2138.56 594.25 2138.19L624.227 2114.69 630.407 2110.02 636.261 2105.29 638 2103.95C635.818 2102.79 633.808 2101.46 631.942 2100Z" fill="#000000" fill-rule="evenodd" fill-opacity="1"/><path d="M950.819 2211.03C948.796 2210.78 946.921 2212 946.621 2213.74L944.365 2227.58 943.448 2234.41 942.329 2241.35 941.443 2248.13 940.239 2255.03 939.178 2261.96 938.265 2268.76 937.106 2275.7 936.175 2282.5 935.038 2289.37C934.747 2291.11 936.157 2292.71 938.175 2292.97 938.636 2293.02 939.079 2293 939.505 2292.92 940.981 2292.64 942.15 2291.62 942.373 2290.27L943.528 2283.33 944.464 2276.53 945.618 2269.57 946.536 2262.74 947.574 2255.93 948.796 2248.96 949.691 2242.14 950.81 2235.2 951.714 2228.38 953.961 2214.64C954.256 2212.9 952.851 2211.28 950.819 2211.03Z" fill="#000000" fill-rule="evenodd" fill-opacity="1"/><path d="M966.598 2083 965.848 2088.04 965.188 2094.58 963.971 2101.36 961.924 2114.85 961.152 2121.41 958.727 2135.05 958.099 2141.6 956.953 2148.3 956.33 2155.12 954.92 2161.8 953.891 2168.66 953.254 2175.28 952.019 2181.85 951.283 2188.72 950.048 2195.29C949.72 2197.03 951.099 2198.68 953.133 2198.96 953.613 2199.03 954.076 2199.01 954.534 2198.92 955.975 2198.64 957.151 2197.65 957.403 2196.31L958.66 2189.62 959.392 2182.77 960.631 2176.19 961.295 2169.33 962.269 2162.78 963.684 2156.1 964.33 2149.13 965.489 2142.33 966.118 2135.78 968.533 2122.24 969.314 2115.63 971.334 2102.25 972.556 2095.35 973 2091.02C970.706 2088.58 968.551 2085.93 966.598 2083Z" fill="#000000" fill-rule="evenodd" fill-opacity="1"/><path d="M1320.05 2210.14 1315.61 2204.4 1311.24 2198.4 1306.75 2192.63 1302.38 2186.82 1298.03 2180.78 1293.55 2175.04 1289.16 2169.09 1284.67 2163.33 1275.96 2151.51C1274.87 2150.01 1272.56 2149.55 1270.78 2150.48 1269.01 2151.42 1268.47 2153.4 1269.57 2154.89L1278.35 2166.79 1282.82 2172.55 1287.23 2178.51 1291.68 2184.22 1295.99 2190.2 1300.43 2196.12 1304.89 2201.85 1309.26 2207.83 1313.71 2213.58 1318.03 2219.49C1318.9 2220.67 1320.53 2221.21 1322.05 2220.92 1322.45 2220.85 1322.84 2220.72 1323.22 2220.52 1324.99 2219.59 1325.53 2217.61 1324.43 2216.11L1320.05 2210.14Z" fill="#000000" fill-rule="evenodd" fill-opacity="1"/><path d="M1260.42 2130.35 1255.82 2124.69 1251.82 2118.97 1247.17 2113.35 1243.01 2107.78 1239.06 2101.89 1234.3 2096.19 1230.08 2090.35 1225.63 2084.97 1217.3 2073.28 1212.91 2067.77 1204.4 2056.39 1200.16 2050.44 1195.69 2045 1191.52 2039.44 1187.59 2033.54 1182.99 2027.83 1179.04 2022.08 1174.53 2016.44 1166.25 2004.79 1162.07 1999.22C1151.67 1994.65 1142.85 1987.16 1136.59 1976.85 1135.43 1974.99 1134.36 1973.09 1133.25 1971.21 1132.77 1970.84 1132.27 1970.44 1131.66 1969.95 1130.74 1969.28 1129.87 1968.64 1129 1968L1129.47 1968.65 1133.9 1974.1 1142.29 1985.72 1150.91 1997.08 1155.71 2002.62 1159.88 2008.17 1168.22 2019.92 1172.64 2025.42 1176.58 2031.17 1181.15 2036.84 1185.1 2042.75 1189.47 2048.56 1193.88 2053.94 1198.05 2059.81 1206.63 2071.27 1210.98 2076.72 1219.37 2088.51 1223.82 2093.88 1227.98 2099.65 1232.63 2105.21 1236.58 2111.1 1240.94 2116.92 1245.44 2122.35 1249.42 2128.07 1254.04 2133.72 1258.03 2139.44C1258.88 2140.66 1260.52 2141.22 1262.06 2140.92 1262.43 2140.86 1262.82 2140.73 1263.17 2140.55 1264.96 2139.65 1265.53 2137.69 1264.46 2136.17L1260.42 2130.35Z" fill="#000000" fill-rule="evenodd" fill-opacity="1"/><path d="M1561.42 1950.86 1522.57 1940.59 1514.73 1938.39 1507 1936.46 1499.16 1934.33 1491.43 1932.39 1475.9 1928.16C1473.94 1927.62 1471.83 1928.52 1471.19 1930.18 1470.54 1931.83 1471.61 1933.61 1473.58 1934.15L1489.21 1938.41 1496.95 1940.36 1504.78 1942.48 1512.48 1944.4 1520.26 1946.58 1535.8 1950.6 1543.63 1952.75 1551.34 1954.71 1559.08 1956.84C1559.74 1957.03 1560.43 1957.04 1561.06 1956.93 1562.31 1956.7 1563.39 1955.92 1563.81 1954.83 1564.46 1953.18 1563.39 1951.39 1561.42 1950.86Z" fill="#000000" fill-rule="evenodd" fill-opacity="1"/><path d="M1454.47 1921.86 1446.73 1919.63 1439.3 1917.92 1431.8 1915.74 1424.02 1913.98 1416.61 1912.03 1409.13 1909.75 1401.33 1908.02 1393.58 1905.87 1386.1 1904.2 1370.91 1899.88 1363.4 1898.09 1348.31 1894.1 1340.58 1891.91 1333.04 1890.19 1325.63 1888.25 1318.16 1885.95 1310.34 1884.1 1302.75 1881.84 1299.19 1881C1299.1 1883.15 1299.04 1885.33 1299 1887.5L1300.48 1887.85 1307.96 1890.08 1315.72 1891.91 1323.22 1894.22 1330.93 1896.24 1338.38 1897.95 1361.22 1904.12 1368.66 1905.9 1383.97 1910.24 1391.45 1911.91 1399.22 1914.06 1406.73 1915.72 1414.2 1918.01 1421.93 1920.04 1429.48 1921.74 1437.08 1923.94 1444.53 1925.64 1452.03 1927.83C1452.71 1928.02 1453.41 1928.05 1454.06 1927.92 1455.29 1927.69 1456.36 1926.95 1456.79 1925.87 1457.47 1924.24 1456.44 1922.44 1454.47 1921.86Z" fill="#000000" fill-rule="evenodd" fill-opacity="1"/><path d="M1461.03 1652.95C1461.16 1652.93 1461.29 1652.89 1461.42 1652.86L1476.66 1647.7 1484.1 1644.99 1491.73 1642.39 1499.13 1639.67 1506.76 1637.17 1514.35 1634.53 1521.77 1631.83 1529.41 1629.26 1536.85 1626.58 1544.43 1624.03C1545.71 1623.61 1546.33 1622.38 1545.83 1621.32 1545.31 1620.24 1543.85 1619.73 1542.56 1620.15L1534.93 1622.71 1527.49 1625.4 1519.85 1627.97 1512.4 1630.68 1504.9 1633.28 1497.22 1635.8 1489.8 1638.53 1482.17 1641.12 1474.73 1643.83 1459.56 1648.96C1458.29 1649.39 1457.67 1650.61 1458.18 1651.68 1458.63 1652.65 1459.86 1653.17 1461.03 1652.95Z" fill="#000000" fill-rule="evenodd" fill-opacity="1"/><path d="M1443.75 1657.03C1443.01 1655.4 1440.78 1654.59 1438.82 1655.2L1431.25 1657.55 1423.76 1660.42 1416.33 1662.74 1408.88 1665.65 1401.6 1668.15 1401 1668.33C1402.18 1670.21 1403.32 1672.11 1404.46 1674L1411.99 1671.41 1419.18 1668.6 1426.6 1666.28 1434.09 1663.42 1441.53 1661.09C1443.51 1660.48 1444.5 1658.67 1443.75 1657.03Z" fill="#000000" fill-rule="evenodd" fill-opacity="1"/><path d="M1218.81 1733.17 1211.36 1735.76C1209.42 1736.44 1208.49 1738.33 1209.28 1739.98 1209.99 1741.46 1211.84 1742.26 1213.6 1741.92 1213.82 1741.88 1214.01 1741.83 1214.22 1741.75L1221.81 1739.11 1222.98 1738.64C1224.33 1735.77 1225.67 1732.89 1227 1730L1225.96 1730.35 1218.81 1733.17Z" fill="#000000" fill-rule="evenodd" fill-opacity="1"/><path d="M1235.99 1446.63C1236.81 1446.99 1237.73 1447.08 1238.56 1446.92 1239.6 1446.72 1240.53 1446.17 1241.06 1445.3L1248.77 1432.96 1252.41 1426.82 1256.26 1420.64 1259.88 1414.52 1263.78 1408.39 1271.2 1396.09 1275.07 1389.91 1278.72 1383.79 1282.55 1377.68C1283.54 1376.13 1282.84 1374.21 1281.02 1373.38 1279.17 1372.54 1276.92 1373.14 1275.93 1374.68L1272.07 1380.86 1268.41 1386.98 1264.54 1393.16 1260.88 1399.31 1253.22 1411.58 1249.58 1417.72 1245.73 1423.91 1242.1 1430.05 1234.44 1442.32C1233.47 1443.88 1234.16 1445.8 1235.99 1446.63Z" fill="#000000" fill-rule="evenodd" fill-opacity="1"/><path d="M1154.54 1587 1157.45 1581.91 1161.43 1575.83 1164.83 1569.82 1168.79 1563.92 1172.5 1557.81 1175.81 1551.85 1187 1533.77 1190.4 1527.84 1198.07 1515.78 1201.37 1509.81 1205.22 1503.67 1208.5 1497.65 1212.45 1491.77 1216.16 1485.65 1219.43 1479.7 1223.38 1473.62 1226.7 1467.67 1230.54 1461.73C1231.53 1460.19 1230.87 1458.25 1229.07 1457.4 1227.25 1456.54 1224.97 1457.12 1223.97 1458.65L1220.04 1464.74 1216.7 1470.69 1212.76 1476.79 1209.43 1482.81 1205.86 1488.71 1201.92 1494.59 1198.52 1500.8 1194.66 1506.92 1191.38 1512.9 1183.74 1524.89 1180.29 1530.88 1173.01 1542.85 1169.13 1548.96 1165.77 1554.96 1162.19 1560.87 1158.25 1566.74 1154.77 1572.88 1150.79 1578.95 1147.38 1584.93 1147 1585.53C1149.52 1585.98 1152.03 1586.49 1154.54 1587Z" fill="#000000" fill-rule="evenodd" fill-opacity="1"/><g><g><g><path d="M46.8873 573.514C47.9529 532.951 100.581 337.154 191.568 255.578L191.568 255.544C214.84 233.028 245.949 220.413 278.331 220.344L304.731 220.344C309.578 220.344 314.425 220.619 319.271 221.134 320.027 220.722 320.852 220.481 321.711 220.344 334.293 218.831 366.846 234.163 379.427 237.944L379.461 237.944C396.133 240.007 412.943 240.35 429.683 239.01L463.749 231.275C482.758 219.278 504.861 213.16 527.308 213.675L552.643 213.675C584.061 212.713 614.449 225.054 636.311 247.638 640.437 251.866 644.184 256.404 647.483 261.285 648.721 258.122 650.68 255.304 653.224 253.104 657.727 249.288 663.64 247.535 669.484 248.257L674.227 248.704 674.262 248.704C680.14 249.117 685.572 251.97 689.284 256.507 693.03 261.56 694.68 267.885 693.89 274.107L693.89 275.62C693.614 277.82 693.134 280.02 692.48 282.117L703.033 287.031 703.033 287.067C703.274 286.104 703.617 285.141 703.996 284.247L704.511 282.941 704.511 282.907C706.643 276.857 711.077 271.872 716.852 269.088 722.214 266.717 728.367 266.717 733.73 269.088L738.13 270.944C743.699 272.972 748.133 277.27 750.367 282.734 752.567 288.75 752.258 295.35 749.577 301.125L749.061 302.534C748.305 304.253 747.446 305.937 746.483 307.553 766.523 325.463 777.18 351.587 775.461 378.4L833.108 424.944 789.899 467.088 649.099 467.088 706.127 599.986 774.396 630.614 774.396 658.424 667.115 658.424 549.107 517.624 480.494 609.918 525.113 635.424 525.113 663.234 417.489 663.268 379.298 596.65 397.517 533.468 318.317 538.212 320.62 609.3 357.504 625.594 357.504 653.404 249.502 653.404 202.408 546.29 114.408 609.23 112.999 649.517 86.8732 660.002 48.9233 578.705C47.5138 577.914 46.8264 576.332 46.8951 573.514Z" fill="#000000" fill-rule="nonzero" fill-opacity="1" transform="matrix(1.00114 0 0 1 563 1382)"/></g></g></g><text fill="#E8E8E8" fill-opacity="1" font-family="Lostina,Lostina_MSFontService,sans-serif" font-style="normal" font-variant="normal" font-weight="400" font-stretch="normal" font-size="128" text-anchor="start" direction="ltr" writing-mode="lr-tb" unicode-bidi="normal" text-decoration="none" transform="matrix(1 0 0 1 820.996 1879)">CAMP</text><text fill="#FFFFFF" fill-opacity="1" font-family="Lostina,Lostina_MSFontService,sans-serif" font-style="normal" font-variant="normal" font-weight="400" font-stretch="normal" font-size="165" text-anchor="start" direction="ltr" writing-mode="lr-tb" unicode-bidi="normal" text-decoration="none" transform="matrix(1 0 0 1 797.758 1780)">SHEN</text></g></g></svg>